# xmcd
#
# Track frame offsets:
#	150
#	15803
#	33323
#	56003
#	71069
#	106952
#	124441
#	136979
#	170187
#
# Disc length: 2590 seconds
#
# Revision: 1
# Processed by: cddbd v1.5.1PL0 Copyright (c) Steve Scherf et al.
# Submitted via: dBpowerAMP V4.0
#
DISCID=7c0a1c09
DTITLE=Goldmine Pickers - Goldmine Pickers
DYEAR=2004
DGENRE=Bluegrass
TTITLE0=Hoad's tornado
TTITLE1=Loneliness and desperation
TTITLE2=Too many things
TTITLE3=Stumblin' Lenny
TTITLE4=Cold coffee,sour oats
TTITLE5=Conversation's free
TTITLE6=Riding on a load of hay/Carving the pumpkin
TTITLE7=Greed
TTITLE8=Tequila Caesar
EXTD=
EXTT0=
EXTT1=
EXTT2=
EXTT3=
EXTT4=
EXTT5=
EXTT6=
EXTT7=
EXTT8=
PLAYORDER=
